<mxfile host="app.diagrams.net" agent="Mozilla/5.0 (Macintosh; Intel Mac OS X 10_15_7) AppleWebKit/537.36 (KHTML, like Gecko) Chrome/128.0.0.0 Safari/537.36 OPR/114.0.0.0" version="24.7.17">
  <diagram id="C5RBs43oDa-KdzZeNtuy" name="Page-1">
    <mxGraphModel dx="2313" dy="1944" grid="1" gridSize="10" guides="1" tooltips="1" connect="1" arrows="1" fold="1" page="1" pageScale="1" pageWidth="827" pageHeight="1169" math="0" shadow="0">
      <root>
        <mxCell id="WIyWlLk6GJQsqaUBKTNV-0" />
        <mxCell id="WIyWlLk6GJQsqaUBKTNV-1" parent="WIyWlLk6GJQsqaUBKTNV-0" />
        <mxCell id="1xf01iBrYeyJN9Es6zK3-61" value="" style="whiteSpace=wrap;html=1;aspect=fixed;dashed=1;" vertex="1" parent="WIyWlLk6GJQsqaUBKTNV-1">
          <mxGeometry x="640" y="416" width="250" height="250" as="geometry" />
        </mxCell>
        <mxCell id="m39n_J0WirBlMpD76ttp-35" style="edgeStyle=none;curved=1;rounded=0;orthogonalLoop=1;jettySize=auto;html=1;fontSize=12;startSize=8;endSize=8;strokeColor=default;" parent="WIyWlLk6GJQsqaUBKTNV-1" source="m39n_J0WirBlMpD76ttp-25" target="m39n_J0WirBlMpD76ttp-32" edge="1">
          <mxGeometry relative="1" as="geometry" />
        </mxCell>
        <mxCell id="m39n_J0WirBlMpD76ttp-25" value="&lt;b&gt;Enable NFS-Client&lt;/b&gt;" style="rounded=1;whiteSpace=wrap;html=1;strokeWidth=2;" parent="WIyWlLk6GJQsqaUBKTNV-1" vertex="1">
          <mxGeometry x="40.01" y="40" width="140" height="60" as="geometry" />
        </mxCell>
        <mxCell id="m39n_J0WirBlMpD76ttp-37" style="edgeStyle=none;curved=1;rounded=0;orthogonalLoop=1;jettySize=auto;html=1;fontSize=12;startSize=8;endSize=8;" parent="WIyWlLk6GJQsqaUBKTNV-1" source="m39n_J0WirBlMpD76ttp-27" target="m39n_J0WirBlMpD76ttp-28" edge="1">
          <mxGeometry relative="1" as="geometry" />
        </mxCell>
        <mxCell id="m39n_J0WirBlMpD76ttp-27" value="&lt;b&gt;Set actual path&lt;/b&gt;" style="rounded=1;whiteSpace=wrap;html=1;strokeWidth=2;" parent="WIyWlLk6GJQsqaUBKTNV-1" vertex="1">
          <mxGeometry x="50" y="300" width="120" height="80" as="geometry" />
        </mxCell>
        <mxCell id="1xf01iBrYeyJN9Es6zK3-9" style="edgeStyle=none;curved=1;rounded=0;orthogonalLoop=1;jettySize=auto;html=1;entryX=0.5;entryY=0;entryDx=0;entryDy=0;fontSize=12;startSize=8;endSize=8;" edge="1" parent="WIyWlLk6GJQsqaUBKTNV-1" source="m39n_J0WirBlMpD76ttp-28" target="1xf01iBrYeyJN9Es6zK3-8">
          <mxGeometry relative="1" as="geometry" />
        </mxCell>
        <mxCell id="m39n_J0WirBlMpD76ttp-28" value="&lt;b&gt;Find mssql backup file&lt;/b&gt;" style="rounded=1;whiteSpace=wrap;html=1;verticalAlign=top;strokeWidth=2;" parent="WIyWlLk6GJQsqaUBKTNV-1" vertex="1">
          <mxGeometry x="11.879999999999999" y="440" width="196.25" height="90" as="geometry" />
        </mxCell>
        <mxCell id="m39n_J0WirBlMpD76ttp-36" style="edgeStyle=none;curved=1;rounded=0;orthogonalLoop=1;jettySize=auto;html=1;entryX=0.5;entryY=0;entryDx=0;entryDy=0;fontSize=12;startSize=8;endSize=8;" parent="WIyWlLk6GJQsqaUBKTNV-1" source="m39n_J0WirBlMpD76ttp-32" target="m39n_J0WirBlMpD76ttp-27" edge="1">
          <mxGeometry relative="1" as="geometry" />
        </mxCell>
        <mxCell id="1xf01iBrYeyJN9Es6zK3-52" style="edgeStyle=none;curved=1;rounded=0;orthogonalLoop=1;jettySize=auto;html=1;fontSize=12;startSize=8;endSize=8;" edge="1" parent="WIyWlLk6GJQsqaUBKTNV-1" source="m39n_J0WirBlMpD76ttp-32" target="1xf01iBrYeyJN9Es6zK3-51">
          <mxGeometry relative="1" as="geometry" />
        </mxCell>
        <mxCell id="m39n_J0WirBlMpD76ttp-32" value="&lt;b&gt;install_dbatools.yml&lt;/b&gt;" style="rounded=1;whiteSpace=wrap;html=1;strokeWidth=2;" parent="WIyWlLk6GJQsqaUBKTNV-1" vertex="1">
          <mxGeometry x="35.01" y="170" width="150" height="60" as="geometry" />
        </mxCell>
        <mxCell id="m39n_J0WirBlMpD76ttp-53" value="&lt;div style=&quot;font-family: Menlo, Monaco, &amp;quot;Courier New&amp;quot;, monospace; font-weight: normal; font-size: 12px; line-height: 18px; white-space: pre;&quot;&gt;&lt;div&gt;&lt;span style=&quot;&quot;&gt;dbatool_download_url&lt;/span&gt;&lt;/div&gt;&lt;/div&gt;" style="text;whiteSpace=wrap;html=1;verticalAlign=middle;labelBackgroundColor=none;fillColor=#ffe6cc;strokeColor=#d79b00;" parent="WIyWlLk6GJQsqaUBKTNV-1" vertex="1">
          <mxGeometry x="500" y="441" width="150" height="20" as="geometry" />
        </mxCell>
        <mxCell id="m39n_J0WirBlMpD76ttp-54" value="&lt;div style=&quot;font-family: Menlo, Monaco, &amp;quot;Courier New&amp;quot;, monospace; font-weight: normal; font-size: 12px; line-height: 18px; white-space: pre;&quot;&gt;&lt;div&gt;&lt;span style=&quot;&quot;&gt;proget_api_key&lt;/span&gt;&lt;/div&gt;&lt;/div&gt;" style="text;whiteSpace=wrap;html=1;verticalAlign=middle;labelBackgroundColor=none;fillColor=#ffe6cc;strokeColor=#d79b00;" parent="WIyWlLk6GJQsqaUBKTNV-1" vertex="1">
          <mxGeometry x="500" y="481" width="150" height="20" as="geometry" />
        </mxCell>
        <mxCell id="m39n_J0WirBlMpD76ttp-60" value="&lt;div style=&quot;line-height: 18px;&quot;&gt;&lt;font face=&quot;Menlo, Monaco, Courier New, monospace&quot;&gt;&lt;span style=&quot;white-space: pre;&quot;&gt;nfs_backup_file_dir&lt;/span&gt;&lt;/font&gt;&lt;br&gt;&lt;/div&gt;" style="text;whiteSpace=wrap;html=1;verticalAlign=middle;labelBackgroundColor=none;fillColor=#ffe6cc;strokeColor=#d79b00;" parent="WIyWlLk6GJQsqaUBKTNV-1" vertex="1">
          <mxGeometry x="-140" y="300" width="150" height="20" as="geometry" />
        </mxCell>
        <mxCell id="m39n_J0WirBlMpD76ttp-61" value="&lt;div style=&quot;line-height: 18px;&quot;&gt;&lt;font face=&quot;Menlo, Monaco, Courier New, monospace&quot;&gt;&lt;span style=&quot;white-space: pre;&quot;&gt;backup_file_dir&lt;/span&gt;&lt;/font&gt;&lt;br&gt;&lt;/div&gt;" style="text;whiteSpace=wrap;html=1;verticalAlign=middle;labelBackgroundColor=none;fillColor=#ffe6cc;strokeColor=#d79b00;" parent="WIyWlLk6GJQsqaUBKTNV-1" vertex="1">
          <mxGeometry x="-140" y="330" width="150" height="20" as="geometry" />
        </mxCell>
        <mxCell id="3nhTPCmxUTczpCAiSNk_-0" value="&lt;div style=&quot;line-height: 18px;&quot;&gt;&lt;font face=&quot;Menlo, Monaco, Courier New, monospace&quot;&gt;&lt;span style=&quot;white-space: pre;&quot;&gt;actual_backup_dest_path&lt;/span&gt;&lt;/font&gt;&lt;br&gt;&lt;/div&gt;" style="text;whiteSpace=wrap;html=1;verticalAlign=middle;labelBackgroundColor=none;fillColor=#dae8fc;strokeColor=#6c8ebf;" parent="WIyWlLk6GJQsqaUBKTNV-1" vertex="1">
          <mxGeometry x="210" y="310" width="190" height="20" as="geometry" />
        </mxCell>
        <mxCell id="3nhTPCmxUTczpCAiSNk_-1" value="&lt;div style=&quot;line-height: 18px;&quot;&gt;&lt;font face=&quot;Menlo, Monaco, Courier New, monospace&quot;&gt;&lt;span style=&quot;white-space: pre;&quot;&gt;actual_backup_source_path&lt;/span&gt;&lt;/font&gt;&lt;br&gt;&lt;/div&gt;" style="text;whiteSpace=wrap;html=1;verticalAlign=middle;labelBackgroundColor=none;fillColor=#dae8fc;strokeColor=#6c8ebf;" parent="WIyWlLk6GJQsqaUBKTNV-1" vertex="1">
          <mxGeometry x="210" y="353" width="190" height="20" as="geometry" />
        </mxCell>
        <mxCell id="3nhTPCmxUTczpCAiSNk_-6" value="&lt;div style=&quot;font-family: Menlo, Monaco, &amp;quot;Courier New&amp;quot;, monospace; font-weight: normal; font-size: 12px; line-height: 18px; white-space: pre;&quot;&gt;&lt;div&gt;&lt;span style=&quot;&quot;&gt;proget_api_key&lt;/span&gt;&lt;/div&gt;&lt;/div&gt;" style="text;whiteSpace=wrap;html=1;verticalAlign=middle;labelBackgroundColor=none;fillColor=#ffe6cc;strokeColor=#d79b00;" parent="WIyWlLk6GJQsqaUBKTNV-1" vertex="1">
          <mxGeometry x="-660" y="-280" width="150" height="20" as="geometry" />
        </mxCell>
        <mxCell id="3nhTPCmxUTczpCAiSNk_-7" value="&lt;div style=&quot;line-height: 18px;&quot;&gt;&lt;font face=&quot;Menlo, Monaco, Courier New, monospace&quot;&gt;&lt;span style=&quot;white-space: pre;&quot;&gt;nfs_backup_file_dir&lt;/span&gt;&lt;/font&gt;&lt;br&gt;&lt;/div&gt;" style="text;whiteSpace=wrap;html=1;verticalAlign=middle;labelBackgroundColor=none;fillColor=#ffe6cc;strokeColor=#d79b00;" parent="WIyWlLk6GJQsqaUBKTNV-1" vertex="1">
          <mxGeometry x="-660" y="-260" width="150" height="20" as="geometry" />
        </mxCell>
        <mxCell id="3nhTPCmxUTczpCAiSNk_-8" value="&lt;div style=&quot;line-height: 18px;&quot;&gt;&lt;font face=&quot;Menlo, Monaco, Courier New, monospace&quot;&gt;&lt;span style=&quot;white-space: pre;&quot;&gt;backup_file_dir&lt;/span&gt;&lt;/font&gt;&lt;br&gt;&lt;/div&gt;" style="text;whiteSpace=wrap;html=1;verticalAlign=middle;labelBackgroundColor=none;fillColor=#ffe6cc;strokeColor=#d79b00;" parent="WIyWlLk6GJQsqaUBKTNV-1" vertex="1">
          <mxGeometry x="-660" y="-240" width="150" height="20" as="geometry" />
        </mxCell>
        <mxCell id="3nhTPCmxUTczpCAiSNk_-10" value="&lt;div style=&quot;line-height: 18px;&quot;&gt;&lt;font face=&quot;Menlo, Monaco, Courier New, monospace&quot;&gt;&lt;span style=&quot;white-space: pre;&quot;&gt;actual_backup_source_path&lt;/span&gt;&lt;/font&gt;&lt;br&gt;&lt;/div&gt;" style="text;whiteSpace=wrap;html=1;verticalAlign=middle;labelBackgroundColor=none;fillColor=#dae8fc;strokeColor=#6c8ebf;" parent="WIyWlLk6GJQsqaUBKTNV-1" vertex="1">
          <mxGeometry x="-350" y="420" width="190" height="20" as="geometry" />
        </mxCell>
        <mxCell id="3nhTPCmxUTczpCAiSNk_-11" value="&lt;div style=&quot;line-height: 18px;&quot;&gt;&lt;font face=&quot;Menlo, Monaco, Courier New, monospace&quot;&gt;&lt;span style=&quot;white-space: pre;&quot;&gt;backup_date&lt;/span&gt;&lt;/font&gt;&lt;br&gt;&lt;/div&gt;" style="text;whiteSpace=wrap;html=1;verticalAlign=middle;labelBackgroundColor=none;fillColor=#ffe6cc;strokeColor=#d79b00;" parent="WIyWlLk6GJQsqaUBKTNV-1" vertex="1">
          <mxGeometry x="-660" y="-220" width="150" height="20" as="geometry" />
        </mxCell>
        <mxCell id="3nhTPCmxUTczpCAiSNk_-13" value="&lt;div style=&quot;line-height: 18px;&quot;&gt;&lt;font face=&quot;Menlo, Monaco, Courier New, monospace&quot;&gt;&lt;span style=&quot;white-space: pre;&quot;&gt;backup_date&lt;/span&gt;&lt;/font&gt;&lt;br&gt;&lt;/div&gt;" style="text;whiteSpace=wrap;html=1;verticalAlign=middle;labelBackgroundColor=none;fillColor=#ffe6cc;strokeColor=#d79b00;" parent="WIyWlLk6GJQsqaUBKTNV-1" vertex="1">
          <mxGeometry x="-206.78" y="473" width="150" height="20" as="geometry" />
        </mxCell>
        <mxCell id="3nhTPCmxUTczpCAiSNk_-14" value="&lt;div style=&quot;line-height: 18px;&quot;&gt;&lt;font face=&quot;Menlo, Monaco, Courier New, monospace&quot;&gt;&lt;span style=&quot;white-space: pre;&quot;&gt;result_get_files&lt;/span&gt;&lt;/font&gt;&lt;br&gt;&lt;/div&gt;" style="text;whiteSpace=wrap;html=1;verticalAlign=middle;labelBackgroundColor=none;fillColor=#dae8fc;strokeColor=#6c8ebf;" parent="WIyWlLk6GJQsqaUBKTNV-1" vertex="1">
          <mxGeometry x="250" y="475" width="130" height="20" as="geometry" />
        </mxCell>
        <mxCell id="3nhTPCmxUTczpCAiSNk_-15" value="&lt;div style=&quot;line-height: 18px;&quot;&gt;&lt;font face=&quot;Menlo, Monaco, Courier New, monospace&quot;&gt;&lt;span style=&quot;white-space: pre;&quot;&gt;result_get_files&lt;/span&gt;&lt;/font&gt;&lt;br&gt;&lt;/div&gt;" style="text;whiteSpace=wrap;html=1;verticalAlign=middle;labelBackgroundColor=none;fillColor=#dae8fc;strokeColor=#6c8ebf;" parent="WIyWlLk6GJQsqaUBKTNV-1" vertex="1">
          <mxGeometry x="-553" y="934" width="130" height="20" as="geometry" />
        </mxCell>
        <mxCell id="3nhTPCmxUTczpCAiSNk_-18" value="&lt;div style=&quot;line-height: 18px;&quot;&gt;&lt;font face=&quot;Menlo, Monaco, Courier New, monospace&quot;&gt;&lt;span style=&quot;white-space: pre;&quot;&gt;result_get_files.total_size&lt;/span&gt;&lt;/font&gt;&lt;br&gt;&lt;/div&gt;" style="text;whiteSpace=wrap;html=1;verticalAlign=middle;labelBackgroundColor=none;fillColor=#dae8fc;strokeColor=#6c8ebf;" parent="WIyWlLk6GJQsqaUBKTNV-1" vertex="1">
          <mxGeometry x="-633" y="1054" width="210" height="20" as="geometry" />
        </mxCell>
        <mxCell id="3nhTPCmxUTczpCAiSNk_-19" value="&lt;div style=&quot;line-height: 18px;&quot;&gt;&lt;font face=&quot;Menlo, Monaco, Courier New, monospace&quot;&gt;&lt;span style=&quot;white-space: pre;&quot;&gt;result_get_files.total_files&lt;/span&gt;&lt;/font&gt;&lt;br&gt;&lt;/div&gt;" style="text;whiteSpace=wrap;html=1;verticalAlign=middle;labelBackgroundColor=none;fillColor=#dae8fc;strokeColor=#6c8ebf;" parent="WIyWlLk6GJQsqaUBKTNV-1" vertex="1">
          <mxGeometry x="-633" y="1074" width="210" height="20" as="geometry" />
        </mxCell>
        <mxCell id="3nhTPCmxUTczpCAiSNk_-22" value="&lt;div style=&quot;line-height: 18px;&quot;&gt;&lt;font face=&quot;Menlo, Monaco, Courier New, monospace&quot;&gt;&lt;span style=&quot;white-space: pre;&quot;&gt;actual_backup_dest_path&lt;/span&gt;&lt;/font&gt;&lt;br&gt;&lt;/div&gt;" style="text;whiteSpace=wrap;html=1;verticalAlign=middle;labelBackgroundColor=none;fillColor=#dae8fc;strokeColor=#6c8ebf;" parent="WIyWlLk6GJQsqaUBKTNV-1" vertex="1">
          <mxGeometry x="-560" y="610" width="250" height="20" as="geometry" />
        </mxCell>
        <mxCell id="3nhTPCmxUTczpCAiSNk_-23" value="&lt;div style=&quot;line-height: 18px;&quot;&gt;&lt;font face=&quot;Menlo, Monaco, Courier New, monospace&quot;&gt;&lt;span style=&quot;white-space: pre;&quot;&gt;actual_backup_source_path&lt;/span&gt;&lt;/font&gt;&lt;br&gt;&lt;/div&gt;" style="text;whiteSpace=wrap;html=1;verticalAlign=middle;labelBackgroundColor=none;fillColor=#dae8fc;strokeColor=#6c8ebf;" parent="WIyWlLk6GJQsqaUBKTNV-1" vertex="1">
          <mxGeometry x="-560" y="630" width="250" height="20" as="geometry" />
        </mxCell>
        <mxCell id="3nhTPCmxUTczpCAiSNk_-24" value="&lt;div style=&quot;line-height: 18px;&quot;&gt;&lt;font face=&quot;Menlo, Monaco, Courier New, monospace&quot;&gt;&lt;span style=&quot;white-space: pre;&quot;&gt;result_get_files.list_backup_files&lt;/span&gt;&lt;/font&gt;&lt;br&gt;&lt;/div&gt;" style="text;whiteSpace=wrap;html=1;verticalAlign=middle;labelBackgroundColor=none;fillColor=#dae8fc;strokeColor=#6c8ebf;" parent="WIyWlLk6GJQsqaUBKTNV-1" vertex="1">
          <mxGeometry x="-560" y="650" width="250" height="20" as="geometry" />
        </mxCell>
        <mxCell id="3nhTPCmxUTczpCAiSNk_-32" value="&lt;div style=&quot;line-height: 18px;&quot;&gt;&lt;font face=&quot;Menlo, Monaco, Courier New, monospace&quot;&gt;&lt;span style=&quot;white-space: pre;&quot;&gt;database_name&lt;/span&gt;&lt;/font&gt;&lt;br&gt;&lt;/div&gt;" style="text;whiteSpace=wrap;html=1;verticalAlign=middle;labelBackgroundColor=none;fillColor=#f8cecc;strokeColor=#b85450;" parent="WIyWlLk6GJQsqaUBKTNV-1" vertex="1">
          <mxGeometry x="-670" y="-40" width="150" height="20" as="geometry" />
        </mxCell>
        <mxCell id="3nhTPCmxUTczpCAiSNk_-33" value="&lt;div style=&quot;line-height: 18px;&quot;&gt;&lt;font face=&quot;Menlo, Monaco, Courier New, monospace&quot;&gt;&lt;span style=&quot;white-space: pre;&quot;&gt;database_name&lt;/span&gt;&lt;/font&gt;&lt;br&gt;&lt;/div&gt;" style="text;whiteSpace=wrap;html=1;verticalAlign=middle;labelBackgroundColor=none;fillColor=#f8cecc;strokeColor=#b85450;" parent="WIyWlLk6GJQsqaUBKTNV-1" vertex="1">
          <mxGeometry x="-140" y="360" width="150" height="20" as="geometry" />
        </mxCell>
        <mxCell id="3nhTPCmxUTczpCAiSNk_-34" value="&lt;div style=&quot;line-height: 18px;&quot;&gt;&lt;font face=&quot;Menlo, Monaco, Courier New, monospace&quot;&gt;&lt;span style=&quot;white-space: pre;&quot;&gt;database_name&lt;/span&gt;&lt;/font&gt;&lt;br&gt;&lt;/div&gt;" style="text;whiteSpace=wrap;html=1;verticalAlign=middle;labelBackgroundColor=none;fillColor=#f8cecc;strokeColor=#b85450;" parent="WIyWlLk6GJQsqaUBKTNV-1" vertex="1">
          <mxGeometry x="-663" y="879" width="250" height="20" as="geometry" />
        </mxCell>
        <mxCell id="3nhTPCmxUTczpCAiSNk_-35" value="&lt;div style=&quot;line-height: 18px;&quot;&gt;&lt;font face=&quot;Menlo, Monaco, Courier New, monospace&quot;&gt;&lt;span style=&quot;white-space: pre;&quot;&gt;result_get_files.list_backup_files&lt;/span&gt;&lt;/font&gt;&lt;br&gt;&lt;/div&gt;" style="text;whiteSpace=wrap;html=1;verticalAlign=middle;labelBackgroundColor=none;fillColor=#dae8fc;strokeColor=#6c8ebf;" parent="WIyWlLk6GJQsqaUBKTNV-1" vertex="1">
          <mxGeometry x="-663" y="899" width="250" height="20" as="geometry" />
        </mxCell>
        <mxCell id="3nhTPCmxUTczpCAiSNk_-36" value="&lt;div style=&quot;line-height: 18px;&quot;&gt;&lt;font face=&quot;Menlo, Monaco, Courier New, monospace&quot;&gt;&lt;span style=&quot;white-space: pre;&quot;&gt;data_file_dir&lt;/span&gt;&lt;/font&gt;&lt;br&gt;&lt;/div&gt;" style="text;whiteSpace=wrap;html=1;verticalAlign=middle;labelBackgroundColor=none;fillColor=#ffe6cc;strokeColor=#d79b00;" parent="WIyWlLk6GJQsqaUBKTNV-1" vertex="1">
          <mxGeometry x="-663" y="919" width="250" height="20" as="geometry" />
        </mxCell>
        <mxCell id="3nhTPCmxUTczpCAiSNk_-37" value="&lt;div style=&quot;line-height: 18px;&quot;&gt;&lt;font face=&quot;Menlo, Monaco, Courier New, monospace&quot;&gt;&lt;span style=&quot;white-space: pre;&quot;&gt;data_file_dir&lt;/span&gt;&lt;/font&gt;&lt;br&gt;&lt;/div&gt;" style="text;whiteSpace=wrap;html=1;verticalAlign=middle;labelBackgroundColor=none;fillColor=#ffe6cc;strokeColor=#d79b00;" parent="WIyWlLk6GJQsqaUBKTNV-1" vertex="1">
          <mxGeometry x="-660" y="-200" width="150" height="20" as="geometry" />
        </mxCell>
        <mxCell id="3nhTPCmxUTczpCAiSNk_-38" value="&lt;div style=&quot;line-height: 18px;&quot;&gt;&lt;font face=&quot;Menlo, Monaco, Courier New, monospace&quot;&gt;&lt;span style=&quot;white-space: pre;&quot;&gt;file_stream_dir&lt;/span&gt;&lt;/font&gt;&lt;br&gt;&lt;/div&gt;" style="text;whiteSpace=wrap;html=1;verticalAlign=middle;labelBackgroundColor=none;fillColor=#ffe6cc;strokeColor=#d79b00;" parent="WIyWlLk6GJQsqaUBKTNV-1" vertex="1">
          <mxGeometry x="-663" y="939" width="250" height="20" as="geometry" />
        </mxCell>
        <mxCell id="3nhTPCmxUTczpCAiSNk_-39" value="&lt;div style=&quot;line-height: 18px;&quot;&gt;&lt;font face=&quot;Menlo, Monaco, Courier New, monospace&quot;&gt;&lt;span style=&quot;white-space: pre;&quot;&gt;file_stream_dir&lt;/span&gt;&lt;/font&gt;&lt;br&gt;&lt;/div&gt;" style="text;whiteSpace=wrap;html=1;verticalAlign=middle;labelBackgroundColor=none;fillColor=#ffe6cc;strokeColor=#d79b00;" parent="WIyWlLk6GJQsqaUBKTNV-1" vertex="1">
          <mxGeometry x="-660" y="-180" width="150" height="20" as="geometry" />
        </mxCell>
        <mxCell id="3nhTPCmxUTczpCAiSNk_-40" value="&lt;div style=&quot;line-height: 18px;&quot;&gt;&lt;font face=&quot;Menlo, Monaco, Courier New, monospace&quot;&gt;&lt;span style=&quot;white-space: pre;&quot;&gt;data_log_dir&lt;/span&gt;&lt;/font&gt;&lt;br&gt;&lt;/div&gt;" style="text;whiteSpace=wrap;html=1;verticalAlign=middle;labelBackgroundColor=none;fillColor=#ffe6cc;strokeColor=#d79b00;" parent="WIyWlLk6GJQsqaUBKTNV-1" vertex="1">
          <mxGeometry x="-663" y="959" width="250" height="20" as="geometry" />
        </mxCell>
        <mxCell id="3nhTPCmxUTczpCAiSNk_-41" value="&lt;div style=&quot;line-height: 18px;&quot;&gt;&lt;font face=&quot;Menlo, Monaco, Courier New, monospace&quot;&gt;&lt;span style=&quot;white-space: pre;&quot;&gt;data_log_dir&lt;/span&gt;&lt;/font&gt;&lt;br&gt;&lt;/div&gt;" style="text;whiteSpace=wrap;html=1;verticalAlign=middle;labelBackgroundColor=none;fillColor=#ffe6cc;strokeColor=#d79b00;" parent="WIyWlLk6GJQsqaUBKTNV-1" vertex="1">
          <mxGeometry x="-660" y="-160" width="150" height="20" as="geometry" />
        </mxCell>
        <mxCell id="3nhTPCmxUTczpCAiSNk_-42" value="&lt;div style=&quot;line-height: 18px;&quot;&gt;&lt;font face=&quot;Menlo, Monaco, Courier New, monospace&quot;&gt;&lt;span style=&quot;white-space: pre;&quot;&gt;actual_backup_source_path&lt;/span&gt;&lt;/font&gt;&lt;br&gt;&lt;/div&gt;" style="text;whiteSpace=wrap;html=1;verticalAlign=middle;labelBackgroundColor=none;fillColor=#dae8fc;strokeColor=#6c8ebf;" parent="WIyWlLk6GJQsqaUBKTNV-1" vertex="1">
          <mxGeometry x="-663" y="979" width="250" height="20" as="geometry" />
        </mxCell>
        <mxCell id="3nhTPCmxUTczpCAiSNk_-43" value="&lt;div style=&quot;line-height: 18px;&quot;&gt;&lt;font face=&quot;Menlo, Monaco, Courier New, monospace&quot;&gt;&lt;span style=&quot;white-space: pre;&quot;&gt;mssql_backup_user&lt;/span&gt;&lt;/font&gt;&lt;br&gt;&lt;/div&gt;" style="text;whiteSpace=wrap;html=1;verticalAlign=middle;labelBackgroundColor=none;fillColor=#ffe6cc;strokeColor=#d79b00;" parent="WIyWlLk6GJQsqaUBKTNV-1" vertex="1">
          <mxGeometry x="-663" y="999" width="250" height="20" as="geometry" />
        </mxCell>
        <mxCell id="3nhTPCmxUTczpCAiSNk_-44" value="&lt;div style=&quot;line-height: 18px;&quot;&gt;&lt;font face=&quot;Menlo, Monaco, Courier New, monospace&quot;&gt;&lt;span style=&quot;white-space: pre;&quot;&gt;mssql_backup_password&lt;/span&gt;&lt;/font&gt;&lt;br&gt;&lt;/div&gt;" style="text;whiteSpace=wrap;html=1;verticalAlign=middle;labelBackgroundColor=none;fillColor=#ffe6cc;strokeColor=#d79b00;" parent="WIyWlLk6GJQsqaUBKTNV-1" vertex="1">
          <mxGeometry x="-663" y="1019" width="250" height="20" as="geometry" />
        </mxCell>
        <mxCell id="3nhTPCmxUTczpCAiSNk_-45" value="&lt;div style=&quot;line-height: 18px;&quot;&gt;&lt;font face=&quot;Menlo, Monaco, Courier New, monospace&quot;&gt;&lt;span style=&quot;white-space: pre;&quot;&gt;inventory_hostname&lt;/span&gt;&lt;/font&gt;&lt;br&gt;&lt;/div&gt;" style="text;whiteSpace=wrap;html=1;verticalAlign=middle;labelBackgroundColor=none;fillColor=#f8cecc;strokeColor=#b85450;" parent="WIyWlLk6GJQsqaUBKTNV-1" vertex="1">
          <mxGeometry x="-663" y="1039" width="250" height="20" as="geometry" />
        </mxCell>
        <mxCell id="3nhTPCmxUTczpCAiSNk_-46" value="&lt;div style=&quot;line-height: 18px;&quot;&gt;&lt;font face=&quot;Menlo, Monaco, Courier New, monospace&quot;&gt;&lt;span style=&quot;white-space: pre;&quot;&gt;sql_port&lt;/span&gt;&lt;/font&gt;&lt;br&gt;&lt;/div&gt;" style="text;whiteSpace=wrap;html=1;verticalAlign=middle;labelBackgroundColor=none;fillColor=#f8cecc;strokeColor=#b85450;" parent="WIyWlLk6GJQsqaUBKTNV-1" vertex="1">
          <mxGeometry x="-663" y="1059" width="250" height="20" as="geometry" />
        </mxCell>
        <mxCell id="3nhTPCmxUTczpCAiSNk_-47" value="&lt;div style=&quot;line-height: 18px;&quot;&gt;&lt;font face=&quot;Menlo, Monaco, Courier New, monospace&quot;&gt;&lt;span style=&quot;white-space: pre;&quot;&gt;mssql_backup_user&lt;/span&gt;&lt;/font&gt;&lt;br&gt;&lt;/div&gt;" style="text;whiteSpace=wrap;html=1;verticalAlign=middle;labelBackgroundColor=none;fillColor=#ffe6cc;strokeColor=#d79b00;" parent="WIyWlLk6GJQsqaUBKTNV-1" vertex="1">
          <mxGeometry x="-660" y="-140" width="150" height="20" as="geometry" />
        </mxCell>
        <mxCell id="3nhTPCmxUTczpCAiSNk_-48" value="&lt;div style=&quot;line-height: 18px;&quot;&gt;&lt;font face=&quot;Menlo, Monaco, Courier New, monospace&quot;&gt;&lt;span style=&quot;white-space: pre;&quot;&gt;mssql_backup_password&lt;/span&gt;&lt;/font&gt;&lt;br&gt;&lt;/div&gt;" style="text;whiteSpace=wrap;html=1;verticalAlign=middle;labelBackgroundColor=none;fillColor=#ffe6cc;strokeColor=#d79b00;" parent="WIyWlLk6GJQsqaUBKTNV-1" vertex="1">
          <mxGeometry x="-660" y="-120" width="160" height="20" as="geometry" />
        </mxCell>
        <mxCell id="3nhTPCmxUTczpCAiSNk_-49" value="&lt;div style=&quot;line-height: 18px;&quot;&gt;&lt;font face=&quot;Menlo, Monaco, Courier New, monospace&quot;&gt;&lt;span style=&quot;white-space: pre;&quot;&gt;inventory_hostname&lt;/span&gt;&lt;/font&gt;&lt;br&gt;&lt;/div&gt;" style="text;whiteSpace=wrap;html=1;verticalAlign=middle;labelBackgroundColor=none;fillColor=#f8cecc;strokeColor=#b85450;" parent="WIyWlLk6GJQsqaUBKTNV-1" vertex="1">
          <mxGeometry x="-670" y="-80" width="250" height="20" as="geometry" />
        </mxCell>
        <mxCell id="3nhTPCmxUTczpCAiSNk_-50" value="&lt;div style=&quot;line-height: 18px;&quot;&gt;&lt;font face=&quot;Menlo, Monaco, Courier New, monospace&quot;&gt;&lt;span style=&quot;white-space: pre;&quot;&gt;sql_port&lt;/span&gt;&lt;/font&gt;&lt;br&gt;&lt;/div&gt;" style="text;whiteSpace=wrap;html=1;verticalAlign=middle;labelBackgroundColor=none;fillColor=#f8cecc;strokeColor=#b85450;" parent="WIyWlLk6GJQsqaUBKTNV-1" vertex="1">
          <mxGeometry x="-670" y="-60" width="250" height="20" as="geometry" />
        </mxCell>
        <mxCell id="3nhTPCmxUTczpCAiSNk_-59" style="edgeStyle=none;curved=1;rounded=0;orthogonalLoop=1;jettySize=auto;html=1;fontSize=12;startSize=8;endSize=8;" parent="WIyWlLk6GJQsqaUBKTNV-1" source="3nhTPCmxUTczpCAiSNk_-58" target="m39n_J0WirBlMpD76ttp-25" edge="1">
          <mxGeometry relative="1" as="geometry" />
        </mxCell>
        <mxCell id="3nhTPCmxUTczpCAiSNk_-58" value="" style="ellipse;whiteSpace=wrap;html=1;aspect=fixed;fillColor=#d5e8d4;strokeColor=#82b366;" parent="WIyWlLk6GJQsqaUBKTNV-1" vertex="1">
          <mxGeometry x="90" y="-40" width="40" height="40" as="geometry" />
        </mxCell>
        <mxCell id="3nhTPCmxUTczpCAiSNk_-5" value="&lt;div style=&quot;font-family: Menlo, Monaco, &amp;quot;Courier New&amp;quot;, monospace; font-weight: normal; font-size: 12px; line-height: 18px; white-space: pre;&quot;&gt;&lt;div&gt;&lt;span style=&quot;&quot;&gt;dbatool_download_url&lt;/span&gt;&lt;/div&gt;&lt;/div&gt;" style="text;whiteSpace=wrap;html=1;verticalAlign=middle;labelBackgroundColor=none;fillColor=#ffe6cc;strokeColor=#d79b00;" parent="WIyWlLk6GJQsqaUBKTNV-1" vertex="1">
          <mxGeometry x="-660" y="-300" width="150" height="20" as="geometry" />
        </mxCell>
        <mxCell id="3nhTPCmxUTczpCAiSNk_-101" value="" style="group" parent="WIyWlLk6GJQsqaUBKTNV-1" vertex="1" connectable="0">
          <mxGeometry x="-56.779999999999944" y="480" width="43.55555555555554" height="8" as="geometry" />
        </mxCell>
        <mxCell id="3nhTPCmxUTczpCAiSNk_-85" value="" style="endArrow=none;html=1;rounded=1;align=center;verticalAlign=top;endFill=0;labelBackgroundColor=none;endSize=2;fontSize=12;curved=0;strokeWidth=2;" parent="3nhTPCmxUTczpCAiSNk_-101" target="3nhTPCmxUTczpCAiSNk_-87" edge="1">
          <mxGeometry relative="1" as="geometry">
            <mxPoint y="4" as="sourcePoint" />
          </mxGeometry>
        </mxCell>
        <mxCell id="3nhTPCmxUTczpCAiSNk_-87" value="" style="ellipse;html=1;fontSize=11;align=center;fillColor=none;points=[];aspect=fixed;resizable=0;verticalAlign=bottom;labelPosition=center;verticalLabelPosition=top;flipH=1;strokeWidth=2;" parent="3nhTPCmxUTczpCAiSNk_-101" vertex="1">
          <mxGeometry x="35.55555555555554" width="8" height="8" as="geometry" />
        </mxCell>
        <mxCell id="3nhTPCmxUTczpCAiSNk_-102" value="" style="group" parent="WIyWlLk6GJQsqaUBKTNV-1" vertex="1" connectable="0">
          <mxGeometry x="-10" y="478" width="40" height="10" as="geometry" />
        </mxCell>
        <mxCell id="3nhTPCmxUTczpCAiSNk_-77" value="" style="endArrow=none;html=1;rounded=1;align=center;verticalAlign=top;endFill=0;labelBackgroundColor=none;endSize=2;fontSize=12;curved=0;strokeWidth=2;" parent="3nhTPCmxUTczpCAiSNk_-102" target="3nhTPCmxUTczpCAiSNk_-78" edge="1">
          <mxGeometry relative="1" as="geometry">
            <mxPoint x="40" y="5" as="sourcePoint" />
            <Array as="points" />
          </mxGeometry>
        </mxCell>
        <mxCell id="3nhTPCmxUTczpCAiSNk_-78" value="" style="shape=requiredInterface;html=1;fontSize=11;align=center;fillColor=none;points=[];aspect=fixed;resizable=0;verticalAlign=bottom;labelPosition=center;verticalLabelPosition=top;flipH=1;rotation=-180;strokeWidth=2;" parent="3nhTPCmxUTczpCAiSNk_-102" vertex="1">
          <mxGeometry width="5" height="10" as="geometry" />
        </mxCell>
        <mxCell id="3nhTPCmxUTczpCAiSNk_-110" value="" style="endArrow=classicThin;html=1;rounded=0;fontSize=12;startSize=8;endSize=8;curved=1;strokeWidth=1;endFill=1;" parent="WIyWlLk6GJQsqaUBKTNV-1" edge="1">
          <mxGeometry width="50" height="50" relative="1" as="geometry">
            <mxPoint x="650" y="451.5" as="sourcePoint" />
            <mxPoint x="690" y="451" as="targetPoint" />
          </mxGeometry>
        </mxCell>
        <mxCell id="3nhTPCmxUTczpCAiSNk_-112" value="" style="endArrow=classicThin;html=1;rounded=0;fontSize=12;startSize=8;endSize=8;curved=1;strokeWidth=1;endFill=1;" parent="WIyWlLk6GJQsqaUBKTNV-1" edge="1">
          <mxGeometry width="50" height="50" relative="1" as="geometry">
            <mxPoint x="650" y="491.5" as="sourcePoint" />
            <mxPoint x="690" y="491" as="targetPoint" />
          </mxGeometry>
        </mxCell>
        <mxCell id="3nhTPCmxUTczpCAiSNk_-113" value="" style="endArrow=classicThin;html=1;rounded=0;fontSize=12;startSize=8;endSize=8;curved=1;strokeWidth=1;endFill=1;" parent="WIyWlLk6GJQsqaUBKTNV-1" edge="1">
          <mxGeometry width="50" height="50" relative="1" as="geometry">
            <mxPoint x="10" y="310.5" as="sourcePoint" />
            <mxPoint x="50" y="310" as="targetPoint" />
          </mxGeometry>
        </mxCell>
        <mxCell id="3nhTPCmxUTczpCAiSNk_-114" value="" style="endArrow=classicThin;html=1;rounded=0;fontSize=12;startSize=8;endSize=8;curved=1;strokeWidth=1;endFill=1;" parent="WIyWlLk6GJQsqaUBKTNV-1" edge="1">
          <mxGeometry width="50" height="50" relative="1" as="geometry">
            <mxPoint x="10" y="340.5" as="sourcePoint" />
            <mxPoint x="50" y="340" as="targetPoint" />
          </mxGeometry>
        </mxCell>
        <mxCell id="3nhTPCmxUTczpCAiSNk_-115" value="" style="endArrow=classicThin;html=1;rounded=0;fontSize=12;startSize=8;endSize=8;curved=1;strokeWidth=1;endFill=1;" parent="WIyWlLk6GJQsqaUBKTNV-1" edge="1">
          <mxGeometry width="50" height="50" relative="1" as="geometry">
            <mxPoint x="10" y="369.5" as="sourcePoint" />
            <mxPoint x="50" y="369" as="targetPoint" />
          </mxGeometry>
        </mxCell>
        <mxCell id="3nhTPCmxUTczpCAiSNk_-116" value="" style="endArrow=classicThin;html=1;rounded=0;fontSize=12;startSize=8;endSize=8;curved=1;strokeWidth=1;endFill=1;" parent="WIyWlLk6GJQsqaUBKTNV-1" edge="1">
          <mxGeometry width="50" height="50" relative="1" as="geometry">
            <mxPoint x="170" y="320.5" as="sourcePoint" />
            <mxPoint x="210" y="320" as="targetPoint" />
          </mxGeometry>
        </mxCell>
        <mxCell id="3nhTPCmxUTczpCAiSNk_-117" value="" style="endArrow=classicThin;html=1;rounded=0;fontSize=12;startSize=8;endSize=8;curved=1;strokeWidth=1;endFill=1;" parent="WIyWlLk6GJQsqaUBKTNV-1" edge="1">
          <mxGeometry width="50" height="50" relative="1" as="geometry">
            <mxPoint x="170" y="362.5" as="sourcePoint" />
            <mxPoint x="210" y="362" as="targetPoint" />
          </mxGeometry>
        </mxCell>
        <mxCell id="3nhTPCmxUTczpCAiSNk_-118" value="&lt;div style=&quot;line-height: 18px;&quot;&gt;&lt;font face=&quot;Menlo, Monaco, Courier New, monospace&quot;&gt;&lt;span style=&quot;white-space: pre;&quot;&gt;backup_date&lt;/span&gt;&lt;/font&gt;&lt;br&gt;&lt;/div&gt;" style="text;whiteSpace=wrap;html=1;verticalAlign=middle;labelBackgroundColor=none;fillColor=#f5f5f5;strokeColor=#666666;fontColor=#333333;" parent="WIyWlLk6GJQsqaUBKTNV-1" vertex="1">
          <mxGeometry x="30" y="473" width="100" height="20" as="geometry" />
        </mxCell>
        <mxCell id="3nhTPCmxUTczpCAiSNk_-119" value="&lt;div style=&quot;line-height: 18px;&quot;&gt;&lt;font face=&quot;Menlo, Monaco, Courier New, monospace&quot;&gt;&lt;span style=&quot;white-space: pre;&quot;&gt;source_folder&lt;/span&gt;&lt;/font&gt;&lt;br&gt;&lt;/div&gt;" style="text;whiteSpace=wrap;html=1;verticalAlign=middle;labelBackgroundColor=none;fillColor=#f5f5f5;strokeColor=#666666;fontColor=#333333;" parent="WIyWlLk6GJQsqaUBKTNV-1" vertex="1">
          <mxGeometry x="30" y="500" width="100" height="20" as="geometry" />
        </mxCell>
        <mxCell id="3nhTPCmxUTczpCAiSNk_-120" value="" style="group" parent="WIyWlLk6GJQsqaUBKTNV-1" vertex="1" connectable="0">
          <mxGeometry x="-10" y="505" width="40" height="10" as="geometry" />
        </mxCell>
        <mxCell id="3nhTPCmxUTczpCAiSNk_-121" value="" style="endArrow=none;html=1;rounded=1;align=center;verticalAlign=top;endFill=0;labelBackgroundColor=none;endSize=2;fontSize=12;curved=0;strokeWidth=2;" parent="3nhTPCmxUTczpCAiSNk_-120" target="3nhTPCmxUTczpCAiSNk_-122" edge="1">
          <mxGeometry relative="1" as="geometry">
            <mxPoint x="40" y="5" as="sourcePoint" />
            <Array as="points" />
          </mxGeometry>
        </mxCell>
        <mxCell id="3nhTPCmxUTczpCAiSNk_-122" value="" style="shape=requiredInterface;html=1;fontSize=11;align=center;fillColor=none;points=[];aspect=fixed;resizable=0;verticalAlign=bottom;labelPosition=center;verticalLabelPosition=top;flipH=1;rotation=-180;strokeWidth=2;" parent="3nhTPCmxUTczpCAiSNk_-120" vertex="1">
          <mxGeometry width="5" height="10" as="geometry" />
        </mxCell>
        <mxCell id="3nhTPCmxUTczpCAiSNk_-123" value="" style="group" parent="WIyWlLk6GJQsqaUBKTNV-1" vertex="1" connectable="0">
          <mxGeometry x="-750" y="430" width="43.55555555555554" height="8" as="geometry" />
        </mxCell>
        <mxCell id="3nhTPCmxUTczpCAiSNk_-124" value="" style="endArrow=none;html=1;rounded=1;align=center;verticalAlign=top;endFill=0;labelBackgroundColor=none;endSize=2;fontSize=12;curved=0;strokeWidth=2;" parent="3nhTPCmxUTczpCAiSNk_-123" target="3nhTPCmxUTczpCAiSNk_-125" edge="1">
          <mxGeometry relative="1" as="geometry">
            <mxPoint y="4" as="sourcePoint" />
          </mxGeometry>
        </mxCell>
        <mxCell id="3nhTPCmxUTczpCAiSNk_-125" value="" style="ellipse;html=1;fontSize=11;align=center;fillColor=none;points=[];aspect=fixed;resizable=0;verticalAlign=bottom;labelPosition=center;verticalLabelPosition=top;flipH=1;strokeWidth=2;" parent="3nhTPCmxUTczpCAiSNk_-123" vertex="1">
          <mxGeometry x="35.55555555555554" width="8" height="8" as="geometry" />
        </mxCell>
        <mxCell id="3nhTPCmxUTczpCAiSNk_-126" value="" style="group" parent="WIyWlLk6GJQsqaUBKTNV-1" vertex="1" connectable="0">
          <mxGeometry x="-753.56" y="373" width="40" height="10" as="geometry" />
        </mxCell>
        <mxCell id="3nhTPCmxUTczpCAiSNk_-127" value="" style="endArrow=none;html=1;rounded=1;align=center;verticalAlign=top;endFill=0;labelBackgroundColor=none;endSize=2;fontSize=12;curved=0;strokeWidth=2;" parent="3nhTPCmxUTczpCAiSNk_-126" target="3nhTPCmxUTczpCAiSNk_-128" edge="1">
          <mxGeometry relative="1" as="geometry">
            <mxPoint x="40" y="5" as="sourcePoint" />
            <Array as="points" />
          </mxGeometry>
        </mxCell>
        <mxCell id="3nhTPCmxUTczpCAiSNk_-128" value="" style="shape=requiredInterface;html=1;fontSize=11;align=center;fillColor=none;points=[];aspect=fixed;resizable=0;verticalAlign=bottom;labelPosition=center;verticalLabelPosition=top;flipH=1;rotation=-180;strokeWidth=2;" parent="3nhTPCmxUTczpCAiSNk_-126" vertex="1">
          <mxGeometry width="5" height="10" as="geometry" />
        </mxCell>
        <mxCell id="1xf01iBrYeyJN9Es6zK3-0" value="&lt;div style=&quot;line-height: 18px;&quot;&gt;&lt;font face=&quot;Menlo, Monaco, Courier New, monospace&quot;&gt;&lt;span style=&quot;white-space: pre;&quot;&gt;actual_backup_source_path&lt;/span&gt;&lt;/font&gt;&lt;br&gt;&lt;/div&gt;" style="text;whiteSpace=wrap;html=1;verticalAlign=middle;labelBackgroundColor=none;fillColor=#dae8fc;strokeColor=#6c8ebf;" vertex="1" parent="WIyWlLk6GJQsqaUBKTNV-1">
          <mxGeometry x="-246.77999999999997" y="500" width="190" height="20" as="geometry" />
        </mxCell>
        <mxCell id="1xf01iBrYeyJN9Es6zK3-1" value="" style="group" vertex="1" connectable="0" parent="WIyWlLk6GJQsqaUBKTNV-1">
          <mxGeometry x="-56.77999999999997" y="506" width="43.55555555555554" height="8" as="geometry" />
        </mxCell>
        <mxCell id="1xf01iBrYeyJN9Es6zK3-2" value="" style="endArrow=none;html=1;rounded=1;align=center;verticalAlign=top;endFill=0;labelBackgroundColor=none;endSize=2;fontSize=12;curved=0;strokeWidth=2;" edge="1" parent="1xf01iBrYeyJN9Es6zK3-1" target="1xf01iBrYeyJN9Es6zK3-3">
          <mxGeometry relative="1" as="geometry">
            <mxPoint y="4" as="sourcePoint" />
          </mxGeometry>
        </mxCell>
        <mxCell id="1xf01iBrYeyJN9Es6zK3-3" value="" style="ellipse;html=1;fontSize=11;align=center;fillColor=none;points=[];aspect=fixed;resizable=0;verticalAlign=bottom;labelPosition=center;verticalLabelPosition=top;flipH=1;strokeWidth=2;" vertex="1" parent="1xf01iBrYeyJN9Es6zK3-1">
          <mxGeometry x="35.55555555555554" width="8" height="8" as="geometry" />
        </mxCell>
        <mxCell id="1xf01iBrYeyJN9Es6zK3-7" value="" style="endArrow=classicThin;html=1;rounded=0;fontSize=12;startSize=8;endSize=8;curved=1;strokeWidth=1;endFill=1;exitX=1;exitY=0.5;exitDx=0;exitDy=0;entryX=0;entryY=0.5;entryDx=0;entryDy=0;" edge="1" parent="WIyWlLk6GJQsqaUBKTNV-1" source="m39n_J0WirBlMpD76ttp-28" target="3nhTPCmxUTczpCAiSNk_-14">
          <mxGeometry width="50" height="50" relative="1" as="geometry">
            <mxPoint x="246.25" y="492.5" as="sourcePoint" />
            <mxPoint x="286" y="492" as="targetPoint" />
          </mxGeometry>
        </mxCell>
        <mxCell id="1xf01iBrYeyJN9Es6zK3-10" style="edgeStyle=none;curved=1;rounded=0;orthogonalLoop=1;jettySize=auto;html=1;fontSize=12;startSize=8;endSize=8;entryX=0.5;entryY=0;entryDx=0;entryDy=0;" edge="1" parent="WIyWlLk6GJQsqaUBKTNV-1" source="1xf01iBrYeyJN9Es6zK3-8" target="1xf01iBrYeyJN9Es6zK3-11">
          <mxGeometry relative="1" as="geometry">
            <mxPoint x="112.33444444444467" y="710" as="targetPoint" />
          </mxGeometry>
        </mxCell>
        <mxCell id="1xf01iBrYeyJN9Es6zK3-8" value="&lt;b&gt;Print&lt;/b&gt;&lt;div style=&quot;font-size: 10px;&quot;&gt;&lt;span style=&quot;text-align: left; font-family: Menlo, Monaco, &amp;quot;Courier New&amp;quot;, monospace; white-space: pre;&quot;&gt;result_get_files.list_backup_files&lt;/span&gt;&lt;div style=&quot;text-align: left;&quot;&gt;&lt;span style=&quot;font-family: Menlo, Monaco, &amp;quot;Courier New&amp;quot;, monospace; white-space: pre;&quot;&gt;result_get_files.total_files&lt;br&gt;&lt;/span&gt;&lt;span style=&quot;font-family: Menlo, Monaco, &amp;quot;Courier New&amp;quot;, monospace; white-space: pre;&quot;&gt;result_get_files.total_size&lt;/span&gt;&lt;/div&gt;&lt;/div&gt;" style="shape=parallelogram;perimeter=parallelogramPerimeter;whiteSpace=wrap;html=1;fixedSize=1;verticalAlign=top;rounded=1;strokeWidth=2;" vertex="1" parent="WIyWlLk6GJQsqaUBKTNV-1">
          <mxGeometry x="-7.489999999999998" y="570" width="234.99" height="70" as="geometry" />
        </mxCell>
        <mxCell id="1xf01iBrYeyJN9Es6zK3-23" style="edgeStyle=none;curved=1;rounded=0;orthogonalLoop=1;jettySize=auto;html=1;fontSize=12;startSize=8;endSize=8;" edge="1" parent="WIyWlLk6GJQsqaUBKTNV-1" source="1xf01iBrYeyJN9Es6zK3-11" target="1xf01iBrYeyJN9Es6zK3-22">
          <mxGeometry relative="1" as="geometry" />
        </mxCell>
        <mxCell id="1xf01iBrYeyJN9Es6zK3-11" value="&lt;b&gt;Set backup files information variables&lt;/b&gt;" style="shape=parallelogram;html=1;strokeWidth=2;perimeter=parallelogramPerimeter;whiteSpace=wrap;rounded=1;arcSize=31;size=0.08823529411764705;verticalAlign=top;" vertex="1" parent="WIyWlLk6GJQsqaUBKTNV-1">
          <mxGeometry x="-20" y="695" width="260" height="90" as="geometry" />
        </mxCell>
        <mxCell id="1xf01iBrYeyJN9Es6zK3-12" value="&lt;div style=&quot;line-height: 18px;&quot;&gt;&lt;font face=&quot;Menlo, Monaco, Courier New, monospace&quot;&gt;&lt;span style=&quot;white-space: pre;&quot;&gt;source_size_in_byte&lt;/span&gt;&lt;/font&gt;&lt;br&gt;&lt;/div&gt;" style="text;whiteSpace=wrap;html=1;verticalAlign=middle;labelBackgroundColor=none;fillColor=#dae8fc;strokeColor=#6c8ebf;" vertex="1" parent="WIyWlLk6GJQsqaUBKTNV-1">
          <mxGeometry x="290" y="710" width="150" height="20" as="geometry" />
        </mxCell>
        <mxCell id="1xf01iBrYeyJN9Es6zK3-13" value="" style="endArrow=classicThin;html=1;rounded=0;fontSize=12;startSize=8;endSize=8;curved=1;strokeWidth=1;endFill=1;exitX=1;exitY=0.25;exitDx=0;exitDy=0;entryX=0;entryY=0.5;entryDx=0;entryDy=0;" edge="1" parent="WIyWlLk6GJQsqaUBKTNV-1" target="1xf01iBrYeyJN9Es6zK3-12" source="1xf01iBrYeyJN9Es6zK3-11">
          <mxGeometry width="50" height="50" relative="1" as="geometry">
            <mxPoint x="290" y="740" as="sourcePoint" />
            <mxPoint x="368" y="747" as="targetPoint" />
          </mxGeometry>
        </mxCell>
        <mxCell id="1xf01iBrYeyJN9Es6zK3-14" value="&lt;div style=&quot;line-height: 18px;&quot;&gt;&lt;font face=&quot;Menlo, Monaco, Courier New, monospace&quot;&gt;&lt;span style=&quot;white-space: pre;&quot;&gt;source_total_files&lt;/span&gt;&lt;/font&gt;&lt;br&gt;&lt;/div&gt;" style="text;whiteSpace=wrap;html=1;verticalAlign=middle;labelBackgroundColor=none;fillColor=#dae8fc;strokeColor=#6c8ebf;" vertex="1" parent="WIyWlLk6GJQsqaUBKTNV-1">
          <mxGeometry x="290" y="750" width="150" height="20" as="geometry" />
        </mxCell>
        <mxCell id="1xf01iBrYeyJN9Es6zK3-15" value="" style="endArrow=classicThin;html=1;rounded=0;fontSize=12;startSize=8;endSize=8;curved=1;strokeWidth=1;endFill=1;entryX=0;entryY=0.5;entryDx=0;entryDy=0;exitX=1;exitY=0.75;exitDx=0;exitDy=0;" edge="1" parent="WIyWlLk6GJQsqaUBKTNV-1" target="1xf01iBrYeyJN9Es6zK3-14" source="1xf01iBrYeyJN9Es6zK3-11">
          <mxGeometry width="50" height="50" relative="1" as="geometry">
            <mxPoint x="380" y="800" as="sourcePoint" />
            <mxPoint x="458" y="807" as="targetPoint" />
          </mxGeometry>
        </mxCell>
        <mxCell id="1xf01iBrYeyJN9Es6zK3-18" value="&lt;div style=&quot;line-height: 18px;&quot;&gt;&lt;font face=&quot;Menlo, Monaco, Courier New, monospace&quot;&gt;&lt;span style=&quot;white-space: pre;&quot;&gt;result_get_files.&lt;/span&gt;&lt;/font&gt;&lt;span style=&quot;background-color: initial; white-space: pre;&quot;&gt;&lt;font face=&quot;Menlo, Monaco, Courier New, monospace&quot;&gt;total_size&lt;/font&gt;&lt;/span&gt;&lt;br&gt;&lt;/div&gt;" style="text;whiteSpace=wrap;html=1;verticalAlign=middle;labelBackgroundColor=none;fillColor=#dae8fc;strokeColor=#6c8ebf;" vertex="1" parent="WIyWlLk6GJQsqaUBKTNV-1">
          <mxGeometry x="-270" y="710" width="213.22" height="20" as="geometry" />
        </mxCell>
        <mxCell id="1xf01iBrYeyJN9Es6zK3-19" value="" style="endArrow=classicThin;html=1;rounded=0;fontSize=12;startSize=8;endSize=8;curved=1;strokeWidth=1;endFill=1;entryX=0;entryY=0.25;entryDx=0;entryDy=0;exitX=1;exitY=0.5;exitDx=0;exitDy=0;" edge="1" parent="WIyWlLk6GJQsqaUBKTNV-1" source="1xf01iBrYeyJN9Es6zK3-18" target="1xf01iBrYeyJN9Es6zK3-11">
          <mxGeometry width="50" height="50" relative="1" as="geometry">
            <mxPoint x="-54.120000000000005" y="719.5" as="sourcePoint" />
            <mxPoint x="11.879999999999995" y="719.5" as="targetPoint" />
          </mxGeometry>
        </mxCell>
        <mxCell id="1xf01iBrYeyJN9Es6zK3-20" value="&lt;div style=&quot;line-height: 18px;&quot;&gt;&lt;font face=&quot;Menlo, Monaco, Courier New, monospace&quot;&gt;&lt;span style=&quot;white-space: pre;&quot;&gt;result_get_files.&lt;/span&gt;&lt;/font&gt;&lt;span style=&quot;background-color: initial; white-space: pre;&quot;&gt;&lt;font face=&quot;Menlo, Monaco, Courier New, monospace&quot;&gt;total_files&lt;/font&gt;&lt;/span&gt;&lt;br&gt;&lt;/div&gt;" style="text;whiteSpace=wrap;html=1;verticalAlign=middle;labelBackgroundColor=none;fillColor=#dae8fc;strokeColor=#6c8ebf;" vertex="1" parent="WIyWlLk6GJQsqaUBKTNV-1">
          <mxGeometry x="-270" y="750" width="213.22" height="20" as="geometry" />
        </mxCell>
        <mxCell id="1xf01iBrYeyJN9Es6zK3-21" value="" style="endArrow=classicThin;html=1;rounded=0;fontSize=12;startSize=8;endSize=8;curved=1;strokeWidth=1;endFill=1;entryX=0;entryY=0.75;entryDx=0;entryDy=0;exitX=1;exitY=0.5;exitDx=0;exitDy=0;" edge="1" parent="WIyWlLk6GJQsqaUBKTNV-1" source="1xf01iBrYeyJN9Es6zK3-20" target="1xf01iBrYeyJN9Es6zK3-11">
          <mxGeometry width="50" height="50" relative="1" as="geometry">
            <mxPoint x="-54.120000000000005" y="759.5" as="sourcePoint" />
            <mxPoint x="-4" y="760" as="targetPoint" />
          </mxGeometry>
        </mxCell>
        <mxCell id="1xf01iBrYeyJN9Es6zK3-73" style="edgeStyle=none;curved=1;rounded=0;orthogonalLoop=1;jettySize=auto;html=1;fontSize=12;startSize=8;endSize=8;" edge="1" parent="WIyWlLk6GJQsqaUBKTNV-1" source="1xf01iBrYeyJN9Es6zK3-22" target="1xf01iBrYeyJN9Es6zK3-72">
          <mxGeometry relative="1" as="geometry" />
        </mxCell>
        <mxCell id="1xf01iBrYeyJN9Es6zK3-22" value="&lt;b&gt;Copy mssql backup files&lt;/b&gt;" style="rounded=1;whiteSpace=wrap;html=1;verticalAlign=top;strokeWidth=2;" vertex="1" parent="WIyWlLk6GJQsqaUBKTNV-1">
          <mxGeometry x="11.88" y="840" width="196.25" height="110" as="geometry" />
        </mxCell>
        <mxCell id="1xf01iBrYeyJN9Es6zK3-24" value="&lt;div style=&quot;line-height: 18px;&quot;&gt;&lt;font face=&quot;Menlo, Monaco, Courier New, monospace&quot;&gt;&lt;span style=&quot;white-space: pre;&quot;&gt;source_folder&lt;/span&gt;&lt;/font&gt;&lt;br&gt;&lt;/div&gt;" style="text;whiteSpace=wrap;html=1;verticalAlign=middle;labelBackgroundColor=none;fillColor=#f5f5f5;strokeColor=#666666;fontColor=#333333;" vertex="1" parent="WIyWlLk6GJQsqaUBKTNV-1">
          <mxGeometry x="30" y="866.5" width="110" height="20" as="geometry" />
        </mxCell>
        <mxCell id="1xf01iBrYeyJN9Es6zK3-25" value="&lt;div style=&quot;line-height: 18px;&quot;&gt;&lt;font face=&quot;Menlo, Monaco, Courier New, monospace&quot;&gt;&lt;span style=&quot;white-space: pre;&quot;&gt;dest_folder&lt;/span&gt;&lt;/font&gt;&lt;br&gt;&lt;/div&gt;" style="text;whiteSpace=wrap;html=1;verticalAlign=middle;labelBackgroundColor=none;fillColor=#f5f5f5;strokeColor=#666666;fontColor=#333333;" vertex="1" parent="WIyWlLk6GJQsqaUBKTNV-1">
          <mxGeometry x="30" y="893.5" width="110" height="20" as="geometry" />
        </mxCell>
        <mxCell id="1xf01iBrYeyJN9Es6zK3-26" value="&lt;div style=&quot;line-height: 18px;&quot;&gt;&lt;font face=&quot;Menlo, Monaco, Courier New, monospace&quot;&gt;&lt;span style=&quot;white-space: pre;&quot;&gt;list_file_copy&lt;/span&gt;&lt;/font&gt;&lt;br&gt;&lt;/div&gt;" style="text;whiteSpace=wrap;html=1;verticalAlign=middle;labelBackgroundColor=none;fillColor=#f5f5f5;strokeColor=#666666;fontColor=#333333;" vertex="1" parent="WIyWlLk6GJQsqaUBKTNV-1">
          <mxGeometry x="30" y="921" width="110" height="20" as="geometry" />
        </mxCell>
        <mxCell id="1xf01iBrYeyJN9Es6zK3-30" value="" style="group" vertex="1" connectable="0" parent="WIyWlLk6GJQsqaUBKTNV-1">
          <mxGeometry x="-10" y="875" width="40" height="10" as="geometry" />
        </mxCell>
        <mxCell id="1xf01iBrYeyJN9Es6zK3-28" value="" style="endArrow=none;html=1;rounded=1;align=center;verticalAlign=top;endFill=0;labelBackgroundColor=none;endSize=2;fontSize=12;curved=0;strokeWidth=2;" edge="1" parent="1xf01iBrYeyJN9Es6zK3-30" target="1xf01iBrYeyJN9Es6zK3-29">
          <mxGeometry relative="1" as="geometry">
            <mxPoint x="40" y="5" as="sourcePoint" />
            <Array as="points" />
          </mxGeometry>
        </mxCell>
        <mxCell id="1xf01iBrYeyJN9Es6zK3-29" value="" style="shape=requiredInterface;html=1;fontSize=11;align=center;fillColor=none;points=[];aspect=fixed;resizable=0;verticalAlign=bottom;labelPosition=center;verticalLabelPosition=top;flipH=1;rotation=-180;strokeWidth=2;" vertex="1" parent="1xf01iBrYeyJN9Es6zK3-30">
          <mxGeometry width="5" height="10" as="geometry" />
        </mxCell>
        <mxCell id="1xf01iBrYeyJN9Es6zK3-31" value="" style="group" vertex="1" connectable="0" parent="WIyWlLk6GJQsqaUBKTNV-1">
          <mxGeometry x="-10" y="899" width="40" height="10" as="geometry" />
        </mxCell>
        <mxCell id="1xf01iBrYeyJN9Es6zK3-32" value="" style="endArrow=none;html=1;rounded=1;align=center;verticalAlign=top;endFill=0;labelBackgroundColor=none;endSize=2;fontSize=12;curved=0;strokeWidth=2;" edge="1" parent="1xf01iBrYeyJN9Es6zK3-31" target="1xf01iBrYeyJN9Es6zK3-33">
          <mxGeometry relative="1" as="geometry">
            <mxPoint x="40" y="5" as="sourcePoint" />
            <Array as="points" />
          </mxGeometry>
        </mxCell>
        <mxCell id="1xf01iBrYeyJN9Es6zK3-33" value="" style="shape=requiredInterface;html=1;fontSize=11;align=center;fillColor=none;points=[];aspect=fixed;resizable=0;verticalAlign=bottom;labelPosition=center;verticalLabelPosition=top;flipH=1;rotation=-180;strokeWidth=2;" vertex="1" parent="1xf01iBrYeyJN9Es6zK3-31">
          <mxGeometry width="5" height="10" as="geometry" />
        </mxCell>
        <mxCell id="1xf01iBrYeyJN9Es6zK3-34" value="" style="group" vertex="1" connectable="0" parent="WIyWlLk6GJQsqaUBKTNV-1">
          <mxGeometry x="-10" y="926" width="40" height="10" as="geometry" />
        </mxCell>
        <mxCell id="1xf01iBrYeyJN9Es6zK3-35" value="" style="endArrow=none;html=1;rounded=1;align=center;verticalAlign=top;endFill=0;labelBackgroundColor=none;endSize=2;fontSize=12;curved=0;strokeWidth=2;" edge="1" parent="1xf01iBrYeyJN9Es6zK3-34" target="1xf01iBrYeyJN9Es6zK3-36">
          <mxGeometry relative="1" as="geometry">
            <mxPoint x="40" y="5" as="sourcePoint" />
            <Array as="points" />
          </mxGeometry>
        </mxCell>
        <mxCell id="1xf01iBrYeyJN9Es6zK3-36" value="" style="shape=requiredInterface;html=1;fontSize=11;align=center;fillColor=none;points=[];aspect=fixed;resizable=0;verticalAlign=bottom;labelPosition=center;verticalLabelPosition=top;flipH=1;rotation=-180;strokeWidth=2;" vertex="1" parent="1xf01iBrYeyJN9Es6zK3-34">
          <mxGeometry width="5" height="10" as="geometry" />
        </mxCell>
        <mxCell id="1xf01iBrYeyJN9Es6zK3-37" value="&lt;div style=&quot;line-height: 18px;&quot;&gt;&lt;font face=&quot;Menlo, Monaco, Courier New, monospace&quot;&gt;&lt;span style=&quot;white-space: pre;&quot;&gt;actual_backup_dest_path&lt;/span&gt;&lt;/font&gt;&lt;br&gt;&lt;/div&gt;" style="text;whiteSpace=wrap;html=1;verticalAlign=middle;labelBackgroundColor=none;fillColor=#dae8fc;strokeColor=#6c8ebf;" vertex="1" parent="WIyWlLk6GJQsqaUBKTNV-1">
          <mxGeometry x="-244" y="868.5" width="190" height="20" as="geometry" />
        </mxCell>
        <mxCell id="1xf01iBrYeyJN9Es6zK3-38" value="&lt;div style=&quot;line-height: 18px;&quot;&gt;&lt;font face=&quot;Menlo, Monaco, Courier New, monospace&quot;&gt;&lt;span style=&quot;white-space: pre;&quot;&gt;actual_backup_source_path&lt;/span&gt;&lt;/font&gt;&lt;br&gt;&lt;/div&gt;" style="text;whiteSpace=wrap;html=1;verticalAlign=middle;labelBackgroundColor=none;fillColor=#dae8fc;strokeColor=#6c8ebf;" vertex="1" parent="WIyWlLk6GJQsqaUBKTNV-1">
          <mxGeometry x="-244.77999999999997" y="894" width="190" height="20" as="geometry" />
        </mxCell>
        <mxCell id="1xf01iBrYeyJN9Es6zK3-39" value="&lt;div style=&quot;line-height: 18px;&quot;&gt;&lt;font face=&quot;Menlo, Monaco, Courier New, monospace&quot;&gt;&lt;span style=&quot;white-space: pre;&quot;&gt;result_get_files.list_backup_files&lt;/span&gt;&lt;/font&gt;&lt;br&gt;&lt;/div&gt;" style="text;whiteSpace=wrap;html=1;verticalAlign=middle;labelBackgroundColor=none;fillColor=#dae8fc;strokeColor=#6c8ebf;" vertex="1" parent="WIyWlLk6GJQsqaUBKTNV-1">
          <mxGeometry x="-304" y="921" width="250" height="20" as="geometry" />
        </mxCell>
        <mxCell id="1xf01iBrYeyJN9Es6zK3-40" value="" style="group" vertex="1" connectable="0" parent="WIyWlLk6GJQsqaUBKTNV-1">
          <mxGeometry x="-53.99999999999997" y="876" width="43.55555555555554" height="8" as="geometry" />
        </mxCell>
        <mxCell id="1xf01iBrYeyJN9Es6zK3-41" value="" style="endArrow=none;html=1;rounded=1;align=center;verticalAlign=top;endFill=0;labelBackgroundColor=none;endSize=2;fontSize=12;curved=0;strokeWidth=2;" edge="1" parent="1xf01iBrYeyJN9Es6zK3-40" target="1xf01iBrYeyJN9Es6zK3-42">
          <mxGeometry relative="1" as="geometry">
            <mxPoint y="4" as="sourcePoint" />
          </mxGeometry>
        </mxCell>
        <mxCell id="1xf01iBrYeyJN9Es6zK3-42" value="" style="ellipse;html=1;fontSize=11;align=center;fillColor=none;points=[];aspect=fixed;resizable=0;verticalAlign=bottom;labelPosition=center;verticalLabelPosition=top;flipH=1;strokeWidth=2;" vertex="1" parent="1xf01iBrYeyJN9Es6zK3-40">
          <mxGeometry x="35.55555555555554" width="8" height="8" as="geometry" />
        </mxCell>
        <mxCell id="1xf01iBrYeyJN9Es6zK3-43" value="" style="group" vertex="1" connectable="0" parent="WIyWlLk6GJQsqaUBKTNV-1">
          <mxGeometry x="-53.99999999999997" y="900" width="43.55555555555554" height="8" as="geometry" />
        </mxCell>
        <mxCell id="1xf01iBrYeyJN9Es6zK3-44" value="" style="endArrow=none;html=1;rounded=1;align=center;verticalAlign=top;endFill=0;labelBackgroundColor=none;endSize=2;fontSize=12;curved=0;strokeWidth=2;" edge="1" parent="1xf01iBrYeyJN9Es6zK3-43" target="1xf01iBrYeyJN9Es6zK3-45">
          <mxGeometry relative="1" as="geometry">
            <mxPoint y="4" as="sourcePoint" />
          </mxGeometry>
        </mxCell>
        <mxCell id="1xf01iBrYeyJN9Es6zK3-45" value="" style="ellipse;html=1;fontSize=11;align=center;fillColor=none;points=[];aspect=fixed;resizable=0;verticalAlign=bottom;labelPosition=center;verticalLabelPosition=top;flipH=1;strokeWidth=2;" vertex="1" parent="1xf01iBrYeyJN9Es6zK3-43">
          <mxGeometry x="35.55555555555554" width="8" height="8" as="geometry" />
        </mxCell>
        <mxCell id="1xf01iBrYeyJN9Es6zK3-46" value="" style="group" vertex="1" connectable="0" parent="WIyWlLk6GJQsqaUBKTNV-1">
          <mxGeometry x="-53.99999999999997" y="927" width="43.55555555555554" height="8" as="geometry" />
        </mxCell>
        <mxCell id="1xf01iBrYeyJN9Es6zK3-47" value="" style="endArrow=none;html=1;rounded=1;align=center;verticalAlign=top;endFill=0;labelBackgroundColor=none;endSize=2;fontSize=12;curved=0;strokeWidth=2;" edge="1" parent="1xf01iBrYeyJN9Es6zK3-46" target="1xf01iBrYeyJN9Es6zK3-48">
          <mxGeometry relative="1" as="geometry">
            <mxPoint y="4" as="sourcePoint" />
          </mxGeometry>
        </mxCell>
        <mxCell id="1xf01iBrYeyJN9Es6zK3-48" value="" style="ellipse;html=1;fontSize=11;align=center;fillColor=none;points=[];aspect=fixed;resizable=0;verticalAlign=bottom;labelPosition=center;verticalLabelPosition=top;flipH=1;strokeWidth=2;" vertex="1" parent="1xf01iBrYeyJN9Es6zK3-46">
          <mxGeometry x="35.55555555555554" width="8" height="8" as="geometry" />
        </mxCell>
        <mxCell id="1xf01iBrYeyJN9Es6zK3-50" value="async" style="text;html=1;align=center;verticalAlign=middle;whiteSpace=wrap;rounded=0;fontSize=12;strokeWidth=1;" vertex="1" parent="WIyWlLk6GJQsqaUBKTNV-1">
          <mxGeometry x="158.13" y="925" width="50" height="25" as="geometry" />
        </mxCell>
        <mxCell id="1xf01iBrYeyJN9Es6zK3-51" value="&lt;b&gt;A&lt;/b&gt;" style="verticalLabelPosition=bottom;verticalAlign=top;html=1;shape=mxgraph.flowchart.on-page_reference;" vertex="1" parent="WIyWlLk6GJQsqaUBKTNV-1">
          <mxGeometry x="230" y="170" width="60" height="60" as="geometry" />
        </mxCell>
        <mxCell id="1xf01iBrYeyJN9Es6zK3-54" style="edgeStyle=none;curved=1;rounded=0;orthogonalLoop=1;jettySize=auto;html=1;fontSize=12;startSize=8;endSize=8;entryX=0;entryY=0.5;entryDx=0;entryDy=0;" edge="1" parent="WIyWlLk6GJQsqaUBKTNV-1" source="1xf01iBrYeyJN9Es6zK3-53" target="1xf01iBrYeyJN9Es6zK3-55">
          <mxGeometry relative="1" as="geometry">
            <mxPoint x="710" y="206" as="targetPoint" />
          </mxGeometry>
        </mxCell>
        <mxCell id="1xf01iBrYeyJN9Es6zK3-53" value="&lt;b&gt;A&lt;/b&gt;" style="verticalLabelPosition=bottom;verticalAlign=top;html=1;shape=mxgraph.flowchart.on-page_reference;" vertex="1" parent="WIyWlLk6GJQsqaUBKTNV-1">
          <mxGeometry x="550" y="176" width="60" height="60" as="geometry" />
        </mxCell>
        <mxCell id="1xf01iBrYeyJN9Es6zK3-58" value="" style="edgeStyle=none;curved=1;rounded=0;orthogonalLoop=1;jettySize=auto;html=1;fontSize=12;startSize=8;endSize=8;entryX=0.5;entryY=0;entryDx=0;entryDy=0;entryPerimeter=0;" edge="1" parent="WIyWlLk6GJQsqaUBKTNV-1" source="1xf01iBrYeyJN9Es6zK3-55" target="1xf01iBrYeyJN9Es6zK3-63">
          <mxGeometry relative="1" as="geometry">
            <mxPoint x="630" y="286" as="targetPoint" />
          </mxGeometry>
        </mxCell>
        <mxCell id="1xf01iBrYeyJN9Es6zK3-55" value="&lt;b&gt;&amp;nbsp;Check dbatools is already install&lt;/b&gt;" style="rounded=1;whiteSpace=wrap;html=1;absoluteArcSize=1;arcSize=14;strokeWidth=2;" vertex="1" parent="WIyWlLk6GJQsqaUBKTNV-1">
          <mxGeometry x="690" y="176" width="150" height="60" as="geometry" />
        </mxCell>
        <mxCell id="1xf01iBrYeyJN9Es6zK3-60" value="" style="edgeStyle=none;curved=1;rounded=0;orthogonalLoop=1;jettySize=auto;html=1;fontSize=12;startSize=8;endSize=8;" edge="1" parent="WIyWlLk6GJQsqaUBKTNV-1" source="1xf01iBrYeyJN9Es6zK3-57" target="1xf01iBrYeyJN9Es6zK3-59">
          <mxGeometry relative="1" as="geometry" />
        </mxCell>
        <mxCell id="1xf01iBrYeyJN9Es6zK3-57" value="&lt;b&gt;Download dbastools from proget&lt;/b&gt;" style="whiteSpace=wrap;html=1;rounded=1;arcSize=14;strokeWidth=2;" vertex="1" parent="WIyWlLk6GJQsqaUBKTNV-1">
          <mxGeometry x="690" y="442" width="150" height="60" as="geometry" />
        </mxCell>
        <mxCell id="1xf01iBrYeyJN9Es6zK3-59" value="&lt;b&gt;Unzip dbatools&lt;/b&gt;" style="whiteSpace=wrap;html=1;rounded=1;arcSize=14;strokeWidth=2;" vertex="1" parent="WIyWlLk6GJQsqaUBKTNV-1">
          <mxGeometry x="690" y="553.5" width="150" height="57" as="geometry" />
        </mxCell>
        <mxCell id="1xf01iBrYeyJN9Es6zK3-62" value="block copy dba tools" style="text;html=1;align=center;verticalAlign=middle;whiteSpace=wrap;rounded=0;fontSize=12;fontStyle=1" vertex="1" parent="WIyWlLk6GJQsqaUBKTNV-1">
          <mxGeometry x="740" y="640" width="140" height="30" as="geometry" />
        </mxCell>
        <mxCell id="1xf01iBrYeyJN9Es6zK3-66" style="edgeStyle=none;curved=1;rounded=0;orthogonalLoop=1;jettySize=auto;html=1;exitX=0.5;exitY=1;exitDx=0;exitDy=0;fontSize=12;startSize=8;endSize=8;exitPerimeter=0;entryX=0.5;entryY=0;entryDx=0;entryDy=0;" edge="1" parent="WIyWlLk6GJQsqaUBKTNV-1" source="1xf01iBrYeyJN9Es6zK3-63" target="1xf01iBrYeyJN9Es6zK3-57">
          <mxGeometry relative="1" as="geometry">
            <mxPoint x="805" y="389" as="targetPoint" />
          </mxGeometry>
        </mxCell>
        <mxCell id="1xf01iBrYeyJN9Es6zK3-68" value="true" style="edgeLabel;html=1;align=center;verticalAlign=middle;resizable=0;points=[];fontSize=12;" vertex="1" connectable="0" parent="1xf01iBrYeyJN9Es6zK3-66">
          <mxGeometry x="0.0991" y="2" relative="1" as="geometry">
            <mxPoint as="offset" />
          </mxGeometry>
        </mxCell>
        <mxCell id="1xf01iBrYeyJN9Es6zK3-70" value="false" style="edgeStyle=none;curved=1;rounded=0;orthogonalLoop=1;jettySize=auto;html=1;fontSize=12;startSize=8;endSize=8;" edge="1" parent="WIyWlLk6GJQsqaUBKTNV-1" source="1xf01iBrYeyJN9Es6zK3-63" target="1xf01iBrYeyJN9Es6zK3-71">
          <mxGeometry relative="1" as="geometry">
            <mxPoint x="890" y="311" as="targetPoint" />
          </mxGeometry>
        </mxCell>
        <mxCell id="1xf01iBrYeyJN9Es6zK3-63" value="" style="strokeWidth=2;html=1;shape=mxgraph.flowchart.decision;whiteSpace=wrap;" vertex="1" parent="WIyWlLk6GJQsqaUBKTNV-1">
          <mxGeometry x="735" y="291" width="60" height="40" as="geometry" />
        </mxCell>
        <mxCell id="1xf01iBrYeyJN9Es6zK3-64" value="&lt;font style=&quot;font-size: 11px;&quot;&gt;not &#39;dbatools&#39; in check_dbatools.stdout&lt;/font&gt;" style="text;html=1;align=center;verticalAlign=middle;whiteSpace=wrap;rounded=0;fontSize=16;" vertex="1" parent="WIyWlLk6GJQsqaUBKTNV-1">
          <mxGeometry x="710" y="331" width="110" height="30" as="geometry" />
        </mxCell>
        <mxCell id="1xf01iBrYeyJN9Es6zK3-71" value="" style="strokeWidth=2;html=1;shape=mxgraph.flowchart.start_1;whiteSpace=wrap;" vertex="1" parent="WIyWlLk6GJQsqaUBKTNV-1">
          <mxGeometry x="880" y="291" width="40" height="40" as="geometry" />
        </mxCell>
        <mxCell id="1xf01iBrYeyJN9Es6zK3-75" style="edgeStyle=none;curved=1;rounded=0;orthogonalLoop=1;jettySize=auto;html=1;fontSize=12;startSize=8;endSize=8;" edge="1" parent="WIyWlLk6GJQsqaUBKTNV-1" source="1xf01iBrYeyJN9Es6zK3-72" target="1xf01iBrYeyJN9Es6zK3-74">
          <mxGeometry relative="1" as="geometry" />
        </mxCell>
        <mxCell id="1xf01iBrYeyJN9Es6zK3-72" value="&lt;b&gt;install_dbatools.yml&lt;/b&gt;" style="rounded=1;whiteSpace=wrap;html=1;strokeWidth=2;" vertex="1" parent="WIyWlLk6GJQsqaUBKTNV-1">
          <mxGeometry x="30.01" y="1014" width="160" height="60" as="geometry" />
        </mxCell>
        <mxCell id="1xf01iBrYeyJN9Es6zK3-74" value="B" style="verticalLabelPosition=bottom;verticalAlign=top;html=1;shape=mxgraph.flowchart.on-page_reference;" vertex="1" parent="WIyWlLk6GJQsqaUBKTNV-1">
          <mxGeometry x="250" y="1014" width="60" height="60" as="geometry" />
        </mxCell>
        <mxCell id="1xf01iBrYeyJN9Es6zK3-78" value="" style="edgeStyle=none;curved=1;rounded=0;orthogonalLoop=1;jettySize=auto;html=1;fontSize=12;startSize=8;endSize=8;entryX=0.5;entryY=0;entryDx=0;entryDy=0;" edge="1" parent="WIyWlLk6GJQsqaUBKTNV-1" source="1xf01iBrYeyJN9Es6zK3-76" target="1xf01iBrYeyJN9Es6zK3-79">
          <mxGeometry relative="1" as="geometry">
            <mxPoint x="519.9999999999995" y="1044" as="targetPoint" />
          </mxGeometry>
        </mxCell>
        <mxCell id="1xf01iBrYeyJN9Es6zK3-76" value="B" style="verticalLabelPosition=bottom;verticalAlign=top;html=1;shape=mxgraph.flowchart.on-page_reference;" vertex="1" parent="WIyWlLk6GJQsqaUBKTNV-1">
          <mxGeometry x="580" y="954" width="60" height="60" as="geometry" />
        </mxCell>
        <mxCell id="1xf01iBrYeyJN9Es6zK3-82" value="" style="edgeStyle=none;curved=1;rounded=0;orthogonalLoop=1;jettySize=auto;html=1;fontSize=12;startSize=8;endSize=8;" edge="1" parent="WIyWlLk6GJQsqaUBKTNV-1" source="1xf01iBrYeyJN9Es6zK3-79" target="1xf01iBrYeyJN9Es6zK3-81">
          <mxGeometry relative="1" as="geometry" />
        </mxCell>
        <mxCell id="1xf01iBrYeyJN9Es6zK3-79" value="&lt;b&gt;Check async copy job status&lt;/b&gt;" style="rounded=1;whiteSpace=wrap;html=1;strokeWidth=2;verticalAlign=top;" vertex="1" parent="WIyWlLk6GJQsqaUBKTNV-1">
          <mxGeometry x="510" y="1060" width="200" height="65" as="geometry" />
        </mxCell>
        <mxCell id="1xf01iBrYeyJN9Es6zK3-81" value="&lt;b&gt;Collect copy progress information&lt;/b&gt;" style="rounded=1;whiteSpace=wrap;html=1;strokeWidth=2;verticalAlign=top;" vertex="1" parent="WIyWlLk6GJQsqaUBKTNV-1">
          <mxGeometry x="510" y="1169" width="200" height="60" as="geometry" />
        </mxCell>
        <mxCell id="1xf01iBrYeyJN9Es6zK3-84" value="&lt;div style=&quot;line-height: 18px;&quot;&gt;&lt;span style=&quot;font-family: Menlo, Monaco, &amp;quot;Courier New&amp;quot;, monospace; white-space: pre;&quot;&gt;copy_task&lt;/span&gt;&lt;br&gt;&lt;/div&gt;" style="text;whiteSpace=wrap;html=1;verticalAlign=middle;labelBackgroundColor=none;fillColor=#dae8fc;strokeColor=#6c8ebf;align=left;" vertex="1" parent="WIyWlLk6GJQsqaUBKTNV-1">
          <mxGeometry x="273" y="889" width="87" height="20" as="geometry" />
        </mxCell>
        <mxCell id="1xf01iBrYeyJN9Es6zK3-85" value="" style="endArrow=classicThin;html=1;rounded=0;fontSize=12;startSize=8;endSize=8;curved=1;strokeWidth=1;endFill=1;entryX=0;entryY=0.5;entryDx=0;entryDy=0;exitX=1;exitY=0.75;exitDx=0;exitDy=0;" edge="1" parent="WIyWlLk6GJQsqaUBKTNV-1" target="1xf01iBrYeyJN9Es6zK3-84">
          <mxGeometry width="50" height="50" relative="1" as="geometry">
            <mxPoint x="207" y="899" as="sourcePoint" />
            <mxPoint x="441" y="946" as="targetPoint" />
          </mxGeometry>
        </mxCell>
        <mxCell id="1xf01iBrYeyJN9Es6zK3-87" value="&lt;div style=&quot;line-height: 18px;&quot;&gt;&lt;font face=&quot;Menlo, Monaco, Courier New, monospace&quot;&gt;&lt;span style=&quot;white-space: pre;&quot;&gt;jid&lt;/span&gt;&lt;/font&gt;&lt;br&gt;&lt;/div&gt;" style="text;whiteSpace=wrap;html=1;verticalAlign=middle;labelBackgroundColor=none;fillColor=#f5f5f5;strokeColor=#666666;fontColor=#333333;" vertex="1" parent="WIyWlLk6GJQsqaUBKTNV-1">
          <mxGeometry x="520" y="1090" width="50" height="20" as="geometry" />
        </mxCell>
        <mxCell id="1xf01iBrYeyJN9Es6zK3-88" value="" style="group" vertex="1" connectable="0" parent="WIyWlLk6GJQsqaUBKTNV-1">
          <mxGeometry x="480" y="1098.5" width="40" height="10" as="geometry" />
        </mxCell>
        <mxCell id="1xf01iBrYeyJN9Es6zK3-89" value="" style="endArrow=none;html=1;rounded=1;align=center;verticalAlign=top;endFill=0;labelBackgroundColor=none;endSize=2;fontSize=12;curved=0;strokeWidth=2;" edge="1" parent="1xf01iBrYeyJN9Es6zK3-88" target="1xf01iBrYeyJN9Es6zK3-90">
          <mxGeometry relative="1" as="geometry">
            <mxPoint x="40" y="5" as="sourcePoint" />
            <Array as="points" />
          </mxGeometry>
        </mxCell>
        <mxCell id="1xf01iBrYeyJN9Es6zK3-90" value="" style="shape=requiredInterface;html=1;fontSize=11;align=center;fillColor=none;points=[];aspect=fixed;resizable=0;verticalAlign=bottom;labelPosition=center;verticalLabelPosition=top;flipH=1;rotation=-180;strokeWidth=2;" vertex="1" parent="1xf01iBrYeyJN9Es6zK3-88">
          <mxGeometry width="5" height="10" as="geometry" />
        </mxCell>
        <mxCell id="1xf01iBrYeyJN9Es6zK3-92" value="&lt;div style=&quot;line-height: 18px;&quot;&gt;&lt;span style=&quot;font-family: Menlo, Monaco, &amp;quot;Courier New&amp;quot;, monospace; white-space: pre;&quot;&gt;copy_task&lt;/span&gt;&lt;br&gt;&lt;/div&gt;" style="text;whiteSpace=wrap;html=1;verticalAlign=middle;labelBackgroundColor=none;fillColor=#dae8fc;strokeColor=#6c8ebf;" vertex="1" parent="WIyWlLk6GJQsqaUBKTNV-1">
          <mxGeometry x="330" y="1092.5" width="104" height="20" as="geometry" />
        </mxCell>
        <mxCell id="1xf01iBrYeyJN9Es6zK3-93" value="" style="group" vertex="1" connectable="0" parent="WIyWlLk6GJQsqaUBKTNV-1">
          <mxGeometry x="434" y="1100" width="43.55555555555554" height="8" as="geometry" />
        </mxCell>
        <mxCell id="1xf01iBrYeyJN9Es6zK3-94" value="" style="endArrow=none;html=1;rounded=1;align=center;verticalAlign=top;endFill=0;labelBackgroundColor=none;endSize=2;fontSize=12;curved=0;strokeWidth=2;" edge="1" parent="1xf01iBrYeyJN9Es6zK3-93" target="1xf01iBrYeyJN9Es6zK3-95">
          <mxGeometry relative="1" as="geometry">
            <mxPoint y="4" as="sourcePoint" />
          </mxGeometry>
        </mxCell>
        <mxCell id="1xf01iBrYeyJN9Es6zK3-95" value="" style="ellipse;html=1;fontSize=11;align=center;fillColor=none;points=[];aspect=fixed;resizable=0;verticalAlign=bottom;labelPosition=center;verticalLabelPosition=top;flipH=1;strokeWidth=2;" vertex="1" parent="1xf01iBrYeyJN9Es6zK3-93">
          <mxGeometry x="35.55555555555554" width="8" height="8" as="geometry" />
        </mxCell>
        <mxCell id="1xf01iBrYeyJN9Es6zK3-96" value="&lt;div style=&quot;line-height: 18px;&quot;&gt;&lt;font face=&quot;Menlo, Monaco, Courier New, monospace&quot;&gt;&lt;span style=&quot;white-space: pre;&quot;&gt;jid&lt;/span&gt;&lt;/font&gt;&lt;br&gt;&lt;/div&gt;" style="text;whiteSpace=wrap;html=1;verticalAlign=middle;labelBackgroundColor=none;fillColor=#f5f5f5;strokeColor=#666666;fontColor=#333333;" vertex="1" parent="WIyWlLk6GJQsqaUBKTNV-1">
          <mxGeometry x="240" y="1240" width="100" height="20" as="geometry" />
        </mxCell>
        <mxCell id="1xf01iBrYeyJN9Es6zK3-97" value="" style="group" vertex="1" connectable="0" parent="WIyWlLk6GJQsqaUBKTNV-1">
          <mxGeometry x="200" y="1248.5" width="40" height="10" as="geometry" />
        </mxCell>
        <mxCell id="1xf01iBrYeyJN9Es6zK3-98" value="" style="endArrow=none;html=1;rounded=1;align=center;verticalAlign=top;endFill=0;labelBackgroundColor=none;endSize=2;fontSize=12;curved=0;strokeWidth=2;" edge="1" parent="1xf01iBrYeyJN9Es6zK3-97" target="1xf01iBrYeyJN9Es6zK3-99">
          <mxGeometry relative="1" as="geometry">
            <mxPoint x="40" y="5" as="sourcePoint" />
            <Array as="points" />
          </mxGeometry>
        </mxCell>
        <mxCell id="1xf01iBrYeyJN9Es6zK3-99" value="" style="shape=requiredInterface;html=1;fontSize=11;align=center;fillColor=none;points=[];aspect=fixed;resizable=0;verticalAlign=bottom;labelPosition=center;verticalLabelPosition=top;flipH=1;rotation=-180;strokeWidth=2;" vertex="1" parent="1xf01iBrYeyJN9Es6zK3-97">
          <mxGeometry width="5" height="10" as="geometry" />
        </mxCell>
        <mxCell id="1xf01iBrYeyJN9Es6zK3-100" value="&lt;div style=&quot;line-height: 18px;&quot;&gt;&lt;font face=&quot;Menlo, Monaco, Courier New, monospace&quot;&gt;&lt;span style=&quot;white-space: pre;&quot;&gt;jid&lt;/span&gt;&lt;/font&gt;&lt;br&gt;&lt;/div&gt;" style="text;whiteSpace=wrap;html=1;verticalAlign=middle;labelBackgroundColor=none;fillColor=#f5f5f5;strokeColor=#666666;fontColor=#333333;" vertex="1" parent="WIyWlLk6GJQsqaUBKTNV-1">
          <mxGeometry x="240" y="1265" width="100" height="20" as="geometry" />
        </mxCell>
        <mxCell id="1xf01iBrYeyJN9Es6zK3-101" value="" style="group" vertex="1" connectable="0" parent="WIyWlLk6GJQsqaUBKTNV-1">
          <mxGeometry x="200" y="1273.5" width="40" height="10" as="geometry" />
        </mxCell>
        <mxCell id="1xf01iBrYeyJN9Es6zK3-102" value="" style="endArrow=none;html=1;rounded=1;align=center;verticalAlign=top;endFill=0;labelBackgroundColor=none;endSize=2;fontSize=12;curved=0;strokeWidth=2;" edge="1" parent="1xf01iBrYeyJN9Es6zK3-101" target="1xf01iBrYeyJN9Es6zK3-103">
          <mxGeometry relative="1" as="geometry">
            <mxPoint x="40" y="5" as="sourcePoint" />
            <Array as="points" />
          </mxGeometry>
        </mxCell>
        <mxCell id="1xf01iBrYeyJN9Es6zK3-103" value="" style="shape=requiredInterface;html=1;fontSize=11;align=center;fillColor=none;points=[];aspect=fixed;resizable=0;verticalAlign=bottom;labelPosition=center;verticalLabelPosition=top;flipH=1;rotation=-180;strokeWidth=2;" vertex="1" parent="1xf01iBrYeyJN9Es6zK3-101">
          <mxGeometry width="5" height="10" as="geometry" />
        </mxCell>
        <mxCell id="1xf01iBrYeyJN9Es6zK3-104" value="&lt;div style=&quot;line-height: 18px;&quot;&gt;&lt;font face=&quot;Menlo, Monaco, Courier New, monospace&quot;&gt;&lt;span style=&quot;white-space: pre;&quot;&gt;jid&lt;/span&gt;&lt;/font&gt;&lt;br&gt;&lt;/div&gt;" style="text;whiteSpace=wrap;html=1;verticalAlign=middle;labelBackgroundColor=none;fillColor=#f5f5f5;strokeColor=#666666;fontColor=#333333;" vertex="1" parent="WIyWlLk6GJQsqaUBKTNV-1">
          <mxGeometry x="240" y="1292" width="100" height="20" as="geometry" />
        </mxCell>
        <mxCell id="1xf01iBrYeyJN9Es6zK3-105" value="" style="group" vertex="1" connectable="0" parent="WIyWlLk6GJQsqaUBKTNV-1">
          <mxGeometry x="200" y="1300.5" width="40" height="10" as="geometry" />
        </mxCell>
        <mxCell id="1xf01iBrYeyJN9Es6zK3-106" value="" style="endArrow=none;html=1;rounded=1;align=center;verticalAlign=top;endFill=0;labelBackgroundColor=none;endSize=2;fontSize=12;curved=0;strokeWidth=2;" edge="1" parent="1xf01iBrYeyJN9Es6zK3-105" target="1xf01iBrYeyJN9Es6zK3-107">
          <mxGeometry relative="1" as="geometry">
            <mxPoint x="40" y="5" as="sourcePoint" />
            <Array as="points" />
          </mxGeometry>
        </mxCell>
        <mxCell id="1xf01iBrYeyJN9Es6zK3-107" value="" style="shape=requiredInterface;html=1;fontSize=11;align=center;fillColor=none;points=[];aspect=fixed;resizable=0;verticalAlign=bottom;labelPosition=center;verticalLabelPosition=top;flipH=1;rotation=-180;strokeWidth=2;" vertex="1" parent="1xf01iBrYeyJN9Es6zK3-105">
          <mxGeometry width="5" height="10" as="geometry" />
        </mxCell>
      </root>
    </mxGraphModel>
  </diagram>
</mxfile>
